<?xml version="1.0" encoding="UTF-8"?>
<svg id="frame_Police" xmlns="http://www.w3.org/2000/svg" width="351.3" height="434" viewBox="0 0 351.3 434">
  <defs>
    <style>
      .cls-1 {
        fill: #072146;
        stroke-width: 0px;
      }
    </style>
  </defs>
  <path class="cls-1" d="M161,0h32c2.2.9,4.6.8,6.9.8,17,.3,33.9,1.7,50.8,3.3,30.7,3,61.1,7.8,91.3,13.9,8.9,1.8,8.9,1.7,8.9,11,0,62.6,0,125.3.3,187.9.1,41.9-14.2,78.8-38.2,112.5-24,33.6-55.5,58.5-90.3,80-14.8,9.1-30.3,16.8-45.8,24.5h-2c-4-2-8.1-3.9-12.1-5.9-41.2-20.7-79.4-45.7-110-80.7C18.8,308.5-.7,264,.7,211.4c0-3.5.3-7-.7-10.4,0-16.3,0-32.7,0-49,.2-2.6.7-5.3.7-7.9,0-39.1.2-78.3,0-117.4,0-4.9,1.6-7,6.4-8C48.8,9.7,91,4.4,133.6,1.6c9.1-.6,18.3,0,27.4-1.6ZM11.1,135.1h0c0,24.7.2,49.3,0,74-.2,19.5,1.7,38.5,7.2,57.3,3.7,12.5,8.4,24.7,15.1,35.6,6.2,10.2,11.9,20.8,20,30,7.2,8.1,14,16.6,21.7,24.2,7.4,7.4,15.5,14.3,24.1,20.3,11.4,8.1,22.7,16.5,34.9,23.7,11.6,6.8,23.5,13,35.2,19.6,4,2.2,7.8,2,11.9.4,7.4-3,14.5-6.8,21.4-10.7,27.9-16,54.7-33.3,77.4-56.6,11-11.3,20.9-23,29.8-35.9,14.4-20.8,23.6-43.8,28.5-68.6,4-20.3,2.5-40.9,2.1-61.3-.4-22.7.8-45.3,0-67.9-.6-15,.8-30,.2-45-.6-13.2.3-26.3,0-39.5,0-5.1-1.8-6.7-6.2-7.4-12.9-2.2-25.8-4.9-38.8-7-26.1-4.3-52.4-7.2-78.8-8.8-33.3-2-66.6-1.4-99.8,1.4-16.2,1.4-32.4,3.6-48.5,5.8-16.8,2.3-33.5,5-50.1,8.6-2.9.6-6.7,1.3-6.7,5.9,0,7-.4,14-.4,21,0,27,0,54,0,81Z"/>
  <path class="cls-1" d="M233.6,380.1c-5.1,4-11.1,7.4-16.8,11-8.6,5.4-17.4,10.7-26.3,15.3-5.8,3-13,9.1-20.1,4.5-4.9-3.2-15.1-8.3-15.1-8.3l-26-15-20.9-14.5-12.1-10s-17.7-16.4-26.1-25c-4.8-4.9-16.5-19-17.8-21-7.6-11.8-14.6-23.9-20.1-36.8-9.6-22.4-14.3-45.7-14-70.2.4-29.3.2-58.6.2-87.9,0-25.8-.4-51.6-.5-77.4,0-8.6,0-8.5,8.4-10.4,49.7-11.3,100.2-16.7,151.1-16.9,27.7-.1,55.5,1.9,83.1,5.6,13.4,1.8,26.8,3.5,40,5.9,9.7,1.7,19.7,2.9,29.2,6.1,3.2,1.1,4.4,2.8,4.4,6.2-.1,53.2-.1,106.3-.2,159.5,0,20.7-2.4,41.1-7.2,61.3-2.5,10.6-7.1,20.3-11.8,29.7-3.6,7.3-9,14.1-13.3,21.3-3.2,5.5-7.7,9.8-11.2,15-4.4,6.4-19.6,22.1-19.6,22.1,0,0-.6.8-.9,1.2,0,.3-24.3,19.5-36.4,28.9ZM166.5,397.5c3.7,2.1,11.2,3.9,16.8,1.4,5.7-2.4,11.1-5.3,16.5-8.4,17.8-10.2,34.6-21.9,50.4-35,16.1-13.3,30.3-28.4,41.9-45.9,6.3-9.6,12.2-19.2,17-29.8,8.2-18.1,14.4-36.8,14.5-56.7.5-56.7.3-113.3.3-170,0-1.7-.5-3.3-.4-5,.2-3.7-1.7-5-5.2-5.8-17.6-3.7-35.4-6.1-53.2-8.5-38.2-5.1-76.6-6.6-115.2-5.3-38,1.2-75.4,5.8-112.5,13.8-8.8,1.9-9.4,2.5-9.3,11.4.3,28.7.2,57.3.3,86,0,25.5-.3,51-.3,76.5,0,19.7,4.1,38.7,11.6,56.9,7.4,17.9,18.7,33.5,29.5,49.3,4.4,6.5,16.3,16.8,16.3,16.8l21.3,20.4s.7,3.8,59.8,37.8Z"/>
</svg>