<svg width="113" height="47" viewBox="0 0 113 47" fill="none" xmlns="http://www.w3.org/2000/svg">
<path d="M50.8362 7.06C50.5242 7.06 50.3042 6.972 50.1762 6.796C50.0562 6.62 49.9962 6.408 49.9962 6.16C49.9962 5.792 50.0522 5.44 50.1642 5.104C50.2762 4.76 50.4082 4.416 50.5602 4.072C50.7202 3.728 50.8682 3.38 51.0042 3.028C51.0682 2.844 51.1242 2.668 51.1722 2.5C51.2202 2.324 51.2442 2.184 51.2442 2.08C51.2442 2 51.2322 1.944 51.2082 1.912V1.876C51.2082 1.836 51.2362 1.82 51.2922 1.828C51.3562 1.844 51.4162 1.86 51.4722 1.876C51.5362 1.884 51.6002 1.9 51.6642 1.924C51.9762 2.028 52.1882 2.168 52.3002 2.344C52.4202 2.512 52.4802 2.688 52.4802 2.872C52.4802 2.904 52.4762 2.936 52.4682 2.968C52.4682 3 52.4642 3.032 52.4562 3.064C52.4402 3.136 52.3882 3.284 52.3002 3.508C52.2122 3.724 52.1122 3.956 52.0002 4.204C51.8722 4.5 51.7402 4.792 51.6042 5.08C51.4682 5.36 51.3442 5.672 51.2322 6.016C51.2242 6.04 51.2202 6.076 51.2202 6.124C51.2202 6.236 51.2682 6.292 51.3642 6.292C51.4522 6.292 51.5362 6.252 51.6162 6.172C51.7362 6.052 51.8802 5.868 52.0482 5.62C52.2162 5.364 52.4242 5 52.6722 4.528C52.8322 4.232 52.9562 3.964 53.0442 3.724C53.1402 3.476 53.2202 3.232 53.2842 2.992C53.3082 2.88 53.3282 2.772 53.3442 2.668C53.3602 2.556 53.3682 2.46 53.3682 2.38C53.3682 2.284 53.3562 2.22 53.3322 2.188C53.3162 2.156 53.3122 2.128 53.3202 2.104C53.3282 2.08 53.3522 2.072 53.3922 2.08C53.6002 2.096 53.8002 2.148 53.9922 2.236C54.1922 2.316 54.3562 2.428 54.4842 2.572C54.6122 2.716 54.6762 2.896 54.6762 3.112C54.6762 3.192 54.6642 3.276 54.6402 3.364C54.6162 3.452 54.5642 3.604 54.4842 3.82C54.4042 4.036 54.3082 4.28 54.1962 4.552C54.0922 4.824 53.9922 5.092 53.8962 5.356C53.8002 5.62 53.7282 5.848 53.6802 6.04C53.6722 6.072 53.6642 6.1 53.6562 6.124C53.6562 6.14 53.6562 6.156 53.6562 6.172C53.6562 6.268 53.6882 6.316 53.7522 6.316C53.8002 6.316 53.8682 6.28 53.9562 6.208C54.0762 6.096 54.2282 5.908 54.4122 5.644C54.6042 5.372 54.8242 5 55.0722 4.528C55.2562 4.184 55.4002 3.844 55.5042 3.508C55.6162 3.172 55.6722 2.876 55.6722 2.62C55.6722 2.332 55.5962 2.116 55.4442 1.972C55.4122 1.94 55.3962 1.924 55.3962 1.924C55.3962 1.908 55.4442 1.896 55.5402 1.888C55.5802 1.888 55.6202 1.888 55.6602 1.888C55.7082 1.88 55.7482 1.876 55.7802 1.876C56.2042 1.876 56.5122 1.948 56.7042 2.092C56.9042 2.228 57.0042 2.392 57.0042 2.584C57.0042 2.624 56.9962 2.676 56.9802 2.74C56.9322 2.948 56.8362 3.204 56.6922 3.508C56.5562 3.804 56.3922 4.116 56.2002 4.444C56.0642 4.676 55.9682 4.88 55.9122 5.056C55.8642 5.224 55.8402 5.384 55.8402 5.536C55.8402 5.84 55.9242 5.992 56.0922 5.992C56.2282 5.992 56.3642 5.904 56.5002 5.728C56.6362 5.568 56.7722 5.36 56.9082 5.104C57.0522 4.848 57.1722 4.62 57.2682 4.42C57.2922 4.364 57.3362 4.336 57.4002 4.336C57.4482 4.336 57.4922 4.36 57.5322 4.408C57.5722 4.448 57.5762 4.5 57.5442 4.564C57.5042 4.644 57.4602 4.732 57.4122 4.828C57.3722 4.916 57.3242 5.008 57.2682 5.104C57.1882 5.248 57.0922 5.416 56.9802 5.608C56.8682 5.8 56.7322 5.972 56.5722 6.124C56.4202 6.268 56.2362 6.34 56.0202 6.34C55.8442 6.34 55.7122 6.268 55.6242 6.124C55.5362 5.98 55.4922 5.82 55.4922 5.644C55.4922 5.612 55.4922 5.58 55.4922 5.548C55.4922 5.516 55.4962 5.484 55.5042 5.452C55.2962 5.74 55.0602 6.008 54.7962 6.256C54.5402 6.496 54.2762 6.692 54.0042 6.844C53.7402 6.988 53.4842 7.06 53.2362 7.06C52.9482 7.06 52.7402 6.968 52.6122 6.784C52.4922 6.592 52.4322 6.36 52.4322 6.088C52.4322 6.016 52.4362 5.944 52.4442 5.872C52.4602 5.792 52.4722 5.716 52.4802 5.644C52.2082 6.052 51.9362 6.392 51.6642 6.664C51.3922 6.928 51.1162 7.06 50.8362 7.06Z" fill="white"/>
<path d="M58.6519 7.18C58.0679 7.18 57.6439 7.048 57.3799 6.784C57.1239 6.52 56.9959 6.172 56.9959 5.74C56.9959 5.412 57.0639 5.052 57.1999 4.66C57.3039 4.34 57.4439 4.016 57.6199 3.688C57.7959 3.352 57.9999 3.044 58.2319 2.764C58.4639 2.476 58.7199 2.248 58.9999 2.08C59.2799 1.904 59.5759 1.816 59.8879 1.816C60.2879 1.816 60.6119 1.88 60.8599 2.008C61.1159 2.128 61.2439 2.328 61.2439 2.608C61.2439 2.816 61.1599 3.076 60.9919 3.388C60.7679 3.82 60.4399 4.176 60.0079 4.456C59.5759 4.736 59.0919 4.896 58.5559 4.936C58.4359 5.264 58.3639 5.532 58.3399 5.74C58.3319 5.78 58.3279 5.82 58.3279 5.86C58.3279 5.892 58.3279 5.928 58.3279 5.968C58.3279 6.232 58.3879 6.424 58.5079 6.544C58.6279 6.656 58.7759 6.712 58.9519 6.712C59.2799 6.712 59.5679 6.628 59.8159 6.46C60.0639 6.292 60.2799 6.08 60.4639 5.824C60.6559 5.568 60.8199 5.312 60.9559 5.056C61.0359 4.912 61.1039 4.78 61.1599 4.66C61.2159 4.532 61.2599 4.44 61.2919 4.384C61.3319 4.32 61.3759 4.288 61.4239 4.288C61.4719 4.288 61.5159 4.316 61.5559 4.372C61.5959 4.42 61.5999 4.476 61.5679 4.54C61.4639 4.748 61.3199 5.024 61.1359 5.368C60.9519 5.712 60.7439 6.016 60.5119 6.28C60.2559 6.584 59.9799 6.812 59.6839 6.964C59.3959 7.108 59.0519 7.18 58.6519 7.18ZM58.7119 4.588C59.0719 4.452 59.3879 4.208 59.6599 3.856C59.9399 3.504 60.1279 3.116 60.2239 2.692C60.2319 2.652 60.2359 2.616 60.2359 2.584C60.2439 2.552 60.2479 2.52 60.2479 2.488C60.2479 2.328 60.1999 2.248 60.1039 2.248C60.0239 2.248 59.9399 2.304 59.8519 2.416C59.7239 2.568 59.5879 2.776 59.4439 3.04C59.2999 3.296 59.1719 3.548 59.0599 3.796C58.9479 4.044 58.8639 4.232 58.8079 4.36L58.7119 4.588Z" fill="white"/>
<path d="M62.4197 7.108C61.9317 7.108 61.5597 7.02 61.3037 6.844C61.0477 6.668 60.9197 6.364 60.9197 5.932C60.9197 5.652 60.9677 5.34 61.0637 4.996C61.1597 4.652 61.2797 4.308 61.4237 3.964C61.5677 3.612 61.7197 3.28 61.8797 2.968C62.0397 2.656 62.1877 2.388 62.3237 2.164C62.4597 1.932 62.5597 1.768 62.6237 1.672C62.7837 1.448 62.9597 1.22 63.1517 0.988004C63.3517 0.756004 63.5717 0.560004 63.8117 0.400004C64.0597 0.240004 64.3277 0.160004 64.6157 0.160004C64.7677 0.160004 64.9237 0.188004 65.0837 0.244004C65.2677 0.316004 65.3597 0.388004 65.3597 0.460004C65.3597 0.508004 65.3197 0.532004 65.2397 0.532004C65.2077 0.532004 65.1597 0.552004 65.0957 0.592004C65.0397 0.624004 64.9877 0.664004 64.9397 0.712004C64.7957 0.856004 64.6237 1.06 64.4237 1.324C64.2317 1.588 64.0277 1.88 63.8117 2.2C63.6037 2.52 63.4037 2.852 63.2117 3.196C63.0277 3.532 62.8717 3.852 62.7437 4.156C63.0957 3.668 63.4077 3.244 63.6797 2.884C63.9597 2.516 64.2477 2.22 64.5437 1.996C64.6317 1.932 64.7437 1.9 64.8797 1.9C65.1117 1.9 65.3197 1.96 65.5037 2.08C65.6157 2.16 65.6717 2.316 65.6717 2.548C65.6717 2.748 65.6357 2.988 65.5637 3.268C65.4917 3.548 65.3957 3.84 65.2757 4.144C65.1637 4.44 65.0397 4.728 64.9037 5.008L64.6877 5.44C64.6637 5.512 64.6517 5.588 64.6517 5.668C64.6517 5.772 64.6757 5.864 64.7237 5.944C64.7717 6.024 64.8397 6.064 64.9277 6.064C65.0477 6.064 65.1837 5.96 65.3357 5.752C65.4477 5.616 65.5517 5.46 65.6477 5.284C65.7517 5.1 65.8437 4.928 65.9237 4.768C66.0037 4.608 66.0637 4.492 66.1037 4.42C66.1277 4.364 66.1717 4.336 66.2357 4.336C66.2917 4.336 66.3397 4.356 66.3797 4.396C66.4197 4.436 66.4237 4.488 66.3917 4.552C66.3197 4.688 66.2277 4.86 66.1157 5.068C66.0117 5.276 65.8917 5.484 65.7557 5.692C65.6277 5.892 65.4877 6.056 65.3357 6.184C65.1917 6.304 65.0517 6.364 64.9157 6.364C64.7957 6.364 64.6877 6.328 64.5917 6.256C64.5037 6.176 64.4397 6.08 64.3997 5.968C64.1917 6.296 63.9357 6.568 63.6317 6.784C63.3277 7 62.9237 7.108 62.4197 7.108ZM62.2157 6.616C62.3277 6.616 62.4677 6.516 62.6357 6.316C62.8037 6.108 62.9757 5.848 63.1517 5.536C63.3277 5.216 63.4917 4.88 63.6437 4.528C63.7957 4.176 63.9117 3.844 63.9917 3.532C64.0797 3.22 64.1157 2.976 64.0997 2.8C63.9957 2.912 63.8757 3.052 63.7397 3.22C63.6117 3.38 63.4797 3.556 63.3437 3.748C63.3277 3.772 63.2717 3.86 63.1757 4.012C63.0877 4.156 62.9797 4.34 62.8517 4.564C62.7237 4.78 62.5997 5.008 62.4797 5.248C62.3597 5.488 62.2597 5.712 62.1797 5.92C62.0997 6.128 62.0597 6.296 62.0597 6.424C62.0597 6.552 62.1117 6.616 62.2157 6.616Z" fill="white"/>
<path d="M7.52852 42.48C6.31252 42.48 5.16052 42.256 4.07252 41.808C3.01652 41.36 2.15252 40.656 1.48052 39.696C0.808518 38.704 0.424518 37.456 0.328518 35.952C0.296518 35.76 0.280518 35.568 0.280518 35.376C0.280518 35.184 0.280518 34.992 0.280518 34.8C0.280518 32.688 0.616518 30.464 1.28852 28.128C1.99252 25.792 2.96852 23.568 4.21652 21.456C5.46452 19.312 6.93652 17.488 8.63252 15.984C10.0405 14.736 11.4965 13.792 13.0005 13.152C14.5045 12.512 16.2325 12.192 18.1845 12.192C19.1445 12.192 20.0245 12.304 20.8245 12.528C21.6565 12.72 22.2485 13.008 22.6005 13.392C22.7605 13.552 22.8405 13.792 22.8405 14.112C22.8405 14.304 22.7925 14.496 22.6965 14.688C22.6325 14.848 22.5205 14.928 22.3605 14.928C22.2005 14.928 22.0405 14.848 21.8805 14.688C21.3365 14.24 20.7765 14.016 20.2005 14.016C19.3045 14.016 18.3925 14.416 17.4645 15.216C16.5365 15.984 15.6725 16.816 14.8725 17.712C13.9765 18.8 13.0645 20.16 12.1365 21.792C11.2405 23.392 10.4245 25.008 9.68852 26.64C9.24052 27.632 8.74452 28.848 8.20052 30.288C7.65652 31.696 7.19252 33.12 6.80852 34.56C6.42452 35.968 6.23252 37.2 6.23252 38.256C6.23252 38.992 6.34452 39.584 6.56852 40.032C6.82452 40.48 7.25652 40.704 7.86452 40.704C9.17652 40.704 10.6805 39.712 12.3765 37.728C14.1045 35.712 15.8805 32.784 17.7045 28.944C18.4405 27.344 18.9845 25.792 19.3365 24.288C19.6885 22.752 19.8645 21.376 19.8645 20.16C19.8645 18.336 19.5445 17.056 18.9045 16.32C18.7445 16.096 18.6645 15.952 18.6645 15.888C18.6645 15.664 18.8565 15.552 19.2405 15.552C19.5285 15.552 19.8165 15.616 20.1045 15.744C21.3525 16.288 22.2165 17.136 22.6965 18.288C23.2085 19.408 23.4645 20.64 23.4645 21.984C23.4645 23.456 23.2565 24.944 22.8405 26.448C22.4245 27.952 21.9765 29.216 21.4965 30.24C20.6645 32.064 19.6245 33.888 18.3765 35.712C17.1285 37.536 15.7525 39.024 14.2485 40.176C13.3205 40.912 12.2645 41.488 11.0805 41.904C9.89652 42.288 8.71252 42.48 7.52852 42.48Z" fill="white"/>
<path d="M54.5554 46.416C54.4594 46.416 54.3634 46.4 54.2674 46.368C54.1714 46.368 54.0754 46.352 53.9794 46.32C52.8594 45.968 52.0594 45.28 51.5794 44.256C51.0994 43.232 50.8594 42 50.8594 40.56C50.8594 39.056 51.0674 37.392 51.4834 35.568C51.8994 33.744 52.4434 31.888 53.1154 30C53.7874 28.08 54.4914 26.256 55.2274 24.528C55.9954 22.768 56.7314 21.2 57.4354 19.824C58.1394 18.416 58.7314 17.312 59.2114 16.512C58.6994 16.96 57.9314 17.696 56.9074 18.72C55.8834 19.712 54.7474 20.896 53.4994 22.272C52.2514 23.648 51.0674 25.12 49.9474 26.688C48.8274 28.256 47.9154 29.84 47.2114 31.44C47.0514 31.856 46.8114 32.544 46.4914 33.504C46.1714 34.432 45.8834 35.44 45.6274 36.528C45.4034 37.616 45.2914 38.576 45.2914 39.408C45.2914 40.048 45.3874 40.544 45.5794 40.896C45.5794 40.928 45.5794 40.96 45.5794 40.992C45.6114 40.992 45.6274 41.008 45.6274 41.04C45.6274 41.36 45.2434 41.52 44.4754 41.52C43.0034 41.52 41.9634 41.088 41.3554 40.224C40.7794 39.328 40.4914 38.192 40.4914 36.816C40.4914 35.184 40.7954 33.344 41.4034 31.296C42.0434 29.216 42.7634 27.232 43.5634 25.344C44.0114 24.288 44.5234 23.216 45.0994 22.128C45.6754 21.008 46.2034 20.016 46.6834 19.152C47.1954 18.256 47.5634 17.632 47.7874 17.28C46.7634 18.208 45.5954 19.36 44.2834 20.736C43.0034 22.08 41.7074 23.584 40.3954 25.248C39.0834 26.88 37.8674 28.576 36.7474 30.336C35.6274 32.064 34.7314 33.792 34.0594 35.52C33.3874 37.216 33.0514 38.816 33.0514 40.32C33.0514 41.024 33.2274 41.584 33.5794 42C33.6434 42.128 33.6754 42.192 33.6754 42.192C33.6754 42.288 33.5154 42.336 33.1954 42.336C31.6274 42.336 30.4434 42.064 29.6434 41.52C28.8754 40.944 28.4914 40.016 28.4914 38.736C28.4914 38.576 28.4914 38.416 28.4914 38.256C28.5234 38.096 28.5554 37.92 28.5874 37.728C28.6834 36.928 28.9074 35.872 29.2594 34.56C29.6434 33.216 30.1394 31.728 30.7474 30.096C31.3874 28.432 32.1074 26.736 32.9074 25.008C33.7394 23.248 34.6354 21.568 35.5954 19.968C35.6914 19.808 35.9314 19.44 36.3154 18.864C36.7314 18.288 37.1154 17.68 37.4674 17.04C37.8514 16.4 38.0434 15.936 38.0434 15.648C38.0434 15.36 37.8514 15.296 37.4674 15.456C36.9234 15.648 36.2834 16.064 35.5474 16.704C34.8114 17.344 34.0114 18.08 33.1474 18.912C32.2834 19.744 31.3714 20.56 30.4114 21.36C29.4834 22.128 28.5234 22.784 27.5314 23.328C26.5714 23.84 25.6274 24.096 24.6994 24.096C24.4754 24.096 24.2354 24.08 23.9794 24.048C23.7554 24.016 23.5154 23.952 23.2594 23.856C22.7154 23.664 22.4434 23.184 22.4434 22.416C22.4434 21.68 22.6514 20.816 23.0674 19.824C23.5154 18.8 24.0594 17.824 24.6994 16.896C24.8594 16.64 25.0514 16.464 25.2754 16.368C25.4994 16.24 25.6754 16.176 25.8034 16.176C26.0594 16.176 26.1874 16.288 26.1874 16.512C26.1874 16.608 26.1394 16.736 26.0434 16.896C26.0114 17.024 25.9634 17.136 25.8994 17.232C25.8674 17.328 25.8514 17.408 25.8514 17.472C25.8514 17.696 25.9634 17.856 26.1874 17.952C26.4114 18.016 26.6514 18.048 26.9074 18.048C27.5794 18.048 28.4594 17.824 29.5474 17.376C30.6354 16.928 31.8034 16.384 33.0514 15.744C34.3314 15.072 35.5954 14.416 36.8434 13.776C38.1234 13.136 39.3074 12.64 40.3954 12.288C41.4834 11.904 42.3794 11.776 43.0834 11.904C43.6274 12.032 44.1074 12.416 44.5234 13.056C44.9714 13.696 45.2594 14.256 45.3874 14.736C45.4514 14.928 45.3554 15.248 45.0994 15.696C44.8434 16.144 44.5074 16.64 44.0914 17.184C43.7074 17.728 43.3234 18.24 42.9394 18.72C42.5554 19.2 42.2674 19.568 42.0754 19.824C41.6594 20.336 41.1794 20.96 40.6354 21.696C40.0914 22.432 39.5474 23.168 39.0034 23.904C38.4914 24.608 38.0754 25.2 37.7554 25.68C37.5634 26 37.4674 26.272 37.4674 26.496C37.4994 26.688 37.5794 26.704 37.7074 26.544C38.4114 25.616 39.2434 24.56 40.2034 23.376C41.1954 22.16 42.1874 20.96 43.1794 19.776C44.2034 18.56 45.1314 17.504 45.9634 16.608C46.8274 15.68 47.4834 15.056 47.9314 14.736C48.0914 14.608 48.3794 14.448 48.7954 14.256C49.2434 14.032 49.7714 13.92 50.3794 13.92C50.7314 13.92 51.0834 13.968 51.4354 14.064C51.7874 14.16 52.1714 14.336 52.5874 14.592C53.2594 15.008 53.5954 15.616 53.5954 16.416C53.5954 17.44 53.0994 18.752 52.1074 20.352C51.1154 21.952 49.9474 23.792 48.6034 25.872C49.2434 25.04 50.0274 24.08 50.9554 22.992C51.9154 21.872 52.8914 20.72 53.8834 19.536C54.9074 18.32 55.8674 17.2 56.7634 16.176C57.6914 15.12 58.4594 14.256 59.0674 13.584C59.7074 12.88 60.0914 12.48 60.2194 12.384C60.7634 12 61.1954 11.808 61.5154 11.808C61.7714 11.808 62.0754 11.888 62.4274 12.048C62.7794 12.208 63.2274 12.432 63.7714 12.72C64.4754 13.072 64.9714 13.52 65.2594 14.064C65.5474 14.576 65.6914 15.152 65.6914 15.792C65.6914 16.752 65.4674 17.744 65.0194 18.768C64.5714 19.76 64.1394 20.64 63.7234 21.408C63.4034 21.952 62.9234 22.88 62.2834 24.192C61.6754 25.504 61.0034 27.024 60.2674 28.752C59.5314 30.48 58.8114 32.272 58.1074 34.128C57.4354 35.984 56.8754 37.76 56.4274 39.456C55.9794 41.12 55.7554 42.544 55.7554 43.728C55.7554 44.144 55.7874 44.528 55.8514 44.88C55.9154 45.232 56.0274 45.536 56.1874 45.792C55.7714 46.208 55.2274 46.416 54.5554 46.416Z" fill="white"/>
<path d="M81.8554 42.576C81.3434 42.576 80.9434 42.528 80.6554 42.432C79.7594 42.208 79.1354 41.712 78.7834 40.944C78.4634 40.144 78.3034 39.264 78.3034 38.304C78.3034 37.408 78.3834 36.528 78.5434 35.664C78.7354 34.8 78.8954 34.128 79.0234 33.648C77.8074 36.368 76.3034 38.48 74.5114 39.984C72.7514 41.488 70.8794 42.24 68.8954 42.24C67.0394 42.24 65.6794 41.76 64.8154 40.8C63.9514 39.808 63.5194 38.496 63.5194 36.864C63.5194 35.584 63.7274 34.256 64.1434 32.88C64.6234 31.152 65.2794 29.36 66.1114 27.504C66.9434 25.648 67.9514 23.856 69.1354 22.128C70.3194 20.4 71.6794 18.832 73.2154 17.424C74.7834 16.016 76.5274 14.912 78.4474 14.112C80.3674 13.28 82.4954 12.864 84.8314 12.864C86.2394 12.864 87.3434 13.088 88.1434 13.536C88.9754 13.984 89.5514 14.624 89.8714 15.456C89.9994 15.744 90.0634 16.064 90.0634 16.416C90.0634 16.896 89.9354 17.264 89.6794 17.52C89.4554 17.744 89.2314 17.856 89.0074 17.856C88.8474 17.856 88.7354 17.76 88.6714 17.568C88.6074 17.12 88.3514 16.768 87.9034 16.512C87.4874 16.256 86.9914 16.08 86.4154 15.984C85.8394 15.856 85.2954 15.792 84.7834 15.792C83.4394 15.792 82.1114 16.256 80.7994 17.184C79.5194 18.08 78.3194 19.216 77.1994 20.592C76.0794 21.936 75.0714 23.328 74.1754 24.768C73.3114 26.208 72.6074 27.456 72.0634 28.512C71.3594 29.984 70.7674 31.536 70.2874 33.168C69.8074 34.768 69.5674 36.16 69.5674 37.344C69.5674 38.144 69.6954 38.784 69.9514 39.264C70.2394 39.712 70.6874 39.936 71.2954 39.936C72.3194 39.904 73.3114 39.328 74.2714 38.208C75.2634 37.088 76.2554 35.6 77.2474 33.744C78.2714 31.888 79.3114 29.824 80.3674 27.552C81.4234 25.28 82.5114 22.976 83.6314 20.64C84.0154 20.704 84.5274 20.8 85.1674 20.928C85.8074 21.024 86.4474 21.168 87.0874 21.36C87.7594 21.552 88.3034 21.792 88.7194 22.08C89.1674 22.336 89.3914 22.672 89.3914 23.088C89.3914 23.312 89.3274 23.536 89.1994 23.76C87.9194 25.456 86.8314 27.328 85.9354 29.376C85.0714 31.392 84.4154 33.36 83.9674 35.28C83.5194 37.168 83.2954 38.8 83.2954 40.176C83.2954 40.656 83.3914 41.008 83.5834 41.232C83.8074 41.424 83.9674 41.552 84.0634 41.616C84.0634 41.968 83.8234 42.208 83.3434 42.336C82.8634 42.496 82.3674 42.576 81.8554 42.576Z" fill="white"/>
<path d="M106.995 46.176C105.907 46.176 104.915 45.792 104.019 45.024C103.155 44.288 102.403 43.312 101.763 42.096C101.123 40.912 100.579 39.664 100.131 38.352C99.683 37.008 99.331 35.76 99.075 34.608C98.819 33.456 98.643 32.576 98.547 31.968C98.291 31.808 98.099 31.648 97.971 31.488C97.107 33.568 96.387 35.52 95.811 37.344C95.235 39.168 94.947 40.576 94.947 41.568C94.947 42.08 95.043 42.464 95.235 42.72C95.299 42.784 95.331 42.88 95.331 43.008C95.331 43.232 95.155 43.28 94.803 43.152C94.547 43.024 94.179 42.928 93.699 42.864C93.251 42.8 92.867 42.704 92.547 42.576C91.939 42.256 91.491 41.76 91.203 41.088C90.915 40.384 90.771 39.568 90.771 38.64C90.771 37.36 90.979 35.904 91.395 34.272C91.811 32.64 92.323 30.992 92.931 29.328C93.571 27.632 94.227 26.048 94.899 24.576C95.571 23.104 96.163 21.856 96.675 20.832C97.219 19.776 97.587 19.088 97.779 18.768C98.387 17.84 99.123 17.184 99.987 16.8C100.851 16.384 101.779 16.176 102.771 16.176C104.915 16.176 105.827 16.368 105.507 16.752C104.131 18.512 102.835 20.608 101.619 23.04C100.403 25.44 99.379 27.808 98.547 30.144C98.739 30.336 99.091 30.432 99.603 30.432C100.339 30.432 101.155 30.032 102.051 29.232C102.979 28.432 103.843 27.408 104.643 26.16C105.475 24.88 106.147 23.536 106.659 22.128C107.203 20.72 107.475 19.408 107.475 18.192C107.475 16.976 107.139 15.984 106.467 15.216C105.795 14.416 104.659 14.016 103.059 14.016C102.003 14.016 100.787 14.192 99.411 14.544C98.067 14.896 96.739 15.424 95.427 16.128C94.115 16.832 92.979 17.728 92.019 18.816C91.059 19.872 90.435 21.136 90.147 22.608C90.019 22.576 89.699 22.496 89.187 22.368C88.675 22.208 88.179 21.968 87.699 21.648C87.251 21.296 87.027 20.848 87.027 20.304C87.027 18.672 87.747 17.28 89.187 16.128C90.627 14.976 92.595 14.096 95.091 13.488C97.587 12.848 100.403 12.528 103.539 12.528C106.771 12.528 109.155 13.152 110.691 14.4C112.227 15.616 112.995 17.168 112.995 19.056C112.995 20.592 112.531 22.192 111.603 23.856C110.707 25.52 109.475 27.024 107.907 28.368C106.371 29.712 104.627 30.688 102.675 31.296C102.899 31.776 103.267 32.48 103.779 33.408C104.323 34.336 104.931 35.36 105.603 36.48C106.307 37.568 107.027 38.608 107.763 39.6C108.499 40.56 109.203 41.344 109.875 41.952C110.547 42.528 111.123 42.752 111.603 42.624C111.763 42.592 111.763 42.752 111.603 43.104C111.475 43.456 111.203 43.856 110.787 44.304C110.403 44.784 109.891 45.216 109.251 45.6C108.611 45.984 107.859 46.176 106.995 46.176Z" fill="white"/>
</svg>
