<svg width="113" height="51" viewBox="0 0 113 51" fill="none" xmlns="http://www.w3.org/2000/svg">
<path d="M7.248 46.32C6.032 46.32 4.88 46.0959 3.792 45.6479C2.736 45.1999 1.872 44.4959 1.2 43.5359C0.528 42.5439 0.144 41.296 0.0480001 39.792C0.016 39.6 0 39.408 0 39.216C0 39.024 0 38.8319 0 38.6399C0 36.5279 0.336 34.3039 1.008 31.9679C1.712 29.6319 2.688 27.4079 3.936 25.2959C5.184 23.1519 6.656 21.3279 8.352 19.8239C9.76 18.5759 11.216 17.6319 12.72 16.9919C14.224 16.3519 15.952 16.0319 17.904 16.0319C18.864 16.0319 19.744 16.1439 20.544 16.3679C21.376 16.5599 21.968 16.8479 22.32 17.2319C22.48 17.3919 22.56 17.6319 22.56 17.9519C22.56 18.1439 22.512 18.3359 22.416 18.5279C22.352 18.6879 22.24 18.7679 22.08 18.7679C21.92 18.7679 21.76 18.6879 21.6 18.5279C21.056 18.0799 20.496 17.8559 19.92 17.8559C19.024 17.8559 18.112 18.2559 17.184 19.0559C16.256 19.8239 15.392 20.6559 14.592 21.5519C13.696 22.6399 12.784 23.9999 11.856 25.6319C10.96 27.2319 10.144 28.8479 9.408 30.4799C8.96 31.4719 8.464 32.6879 7.92 34.1279C7.376 35.5359 6.912 36.9599 6.528 38.4C6.144 39.8079 5.952 41.0399 5.952 42.0959C5.952 42.8319 6.064 43.424 6.288 43.872C6.544 44.32 6.976 44.5439 7.584 44.5439C8.896 44.5439 10.4 43.5519 12.096 41.5679C13.824 39.5519 15.6 36.6239 17.424 32.7839C18.16 31.1839 18.704 29.6319 19.056 28.1279C19.408 26.5919 19.584 25.2159 19.584 23.9999C19.584 22.1759 19.264 20.8959 18.624 20.1599C18.464 19.9359 18.384 19.7919 18.384 19.7279C18.384 19.5039 18.576 19.3919 18.96 19.3919C19.248 19.3919 19.536 19.4559 19.824 19.5839C21.072 20.1279 21.936 20.9759 22.416 22.1279C22.928 23.2479 23.184 24.4799 23.184 25.8239C23.184 27.2959 22.976 28.7839 22.56 30.2879C22.144 31.7919 21.696 33.0559 21.216 34.0799C20.384 35.9039 19.344 37.7279 18.096 39.5519C16.848 41.3759 15.472 42.8639 13.968 44.0159C13.04 44.7519 11.984 45.3279 10.8 45.7439C9.616 46.1279 8.432 46.32 7.248 46.32Z" fill="white"/>
<path d="M54.2749 50.256C54.1789 50.256 54.0829 50.24 53.9869 50.208C53.8909 50.208 53.7949 50.192 53.6989 50.16C52.5789 49.808 51.7789 49.12 51.2989 48.096C50.8189 47.072 50.5789 45.84 50.5789 44.4C50.5789 42.8959 50.7869 41.2319 51.2029 39.4079C51.6189 37.5839 52.1629 35.728 52.8349 33.84C53.5069 31.92 54.2109 30.0959 54.9469 28.3679C55.7149 26.6079 56.4509 25.0399 57.1549 23.6639C57.8589 22.2559 58.4509 21.1519 58.9309 20.3519C58.4189 20.7999 57.6509 21.5359 56.6269 22.5599C55.6029 23.5519 54.4669 24.7359 53.2189 26.1119C51.9709 27.4879 50.7869 28.9599 49.6669 30.5279C48.5469 32.0959 47.6349 33.6799 46.9309 35.2799C46.7709 35.6959 46.5309 36.3839 46.2109 37.344C45.8909 38.272 45.6029 39.2799 45.3469 40.3679C45.1229 41.4559 45.0109 42.4159 45.0109 43.2479C45.0109 43.8879 45.1069 44.384 45.2989 44.736C45.2989 44.768 45.2989 44.7999 45.2989 44.8319C45.3309 44.8319 45.3469 44.8479 45.3469 44.8799C45.3469 45.1999 44.9629 45.3599 44.1949 45.3599C42.7229 45.3599 41.6829 44.9279 41.0749 44.0639C40.4989 43.1679 40.2109 42.0319 40.2109 40.6559C40.2109 39.0239 40.5149 37.1839 41.1229 35.136C41.7629 33.0559 42.4829 31.0719 43.2829 29.1839C43.7309 28.1279 44.2429 27.0559 44.8189 25.9679C45.3949 24.8479 45.9229 23.8559 46.4029 22.9919C46.9149 22.0959 47.2829 21.4719 47.5069 21.1199C46.4829 22.0479 45.3149 23.1999 44.0029 24.5759C42.7229 25.9199 41.4269 27.4239 40.1149 29.0879C38.8029 30.7199 37.5869 32.4159 36.4669 34.1759C35.3469 35.9039 34.4509 37.6319 33.7789 39.3599C33.1069 41.0559 32.7709 42.656 32.7709 44.16C32.7709 44.864 32.9469 45.424 33.2989 45.84C33.3629 45.968 33.3949 46.0319 33.3949 46.0319C33.3949 46.1279 33.2349 46.1759 32.9149 46.1759C31.3469 46.1759 30.1629 45.9039 29.3629 45.3599C28.5949 44.7839 28.2109 43.8559 28.2109 42.5759C28.2109 42.4159 28.2109 42.2559 28.2109 42.0959C28.2429 41.9359 28.2749 41.7599 28.3069 41.5679C28.4029 40.7679 28.6269 39.7119 28.9789 38.4C29.3629 37.0559 29.8589 35.5679 30.4669 33.9359C31.1069 32.2719 31.8269 30.5759 32.6269 28.8479C33.4589 27.0879 34.3549 25.4079 35.3149 23.8079C35.4109 23.6479 35.6509 23.2799 36.0349 22.7039C36.4509 22.1279 36.8349 21.5199 37.1869 20.8799C37.5709 20.2399 37.7629 19.7759 37.7629 19.4879C37.7629 19.1999 37.5709 19.1359 37.1869 19.2959C36.6429 19.4879 36.0029 19.9039 35.2669 20.5439C34.5309 21.1839 33.7309 21.9199 32.8669 22.7519C32.0029 23.5839 31.0909 24.3999 30.1309 25.1999C29.2029 25.9679 28.2429 26.6239 27.2509 27.1679C26.2909 27.6799 25.3469 27.9359 24.4189 27.9359C24.1949 27.9359 23.9549 27.9199 23.6989 27.8879C23.4749 27.8559 23.2349 27.7919 22.9789 27.6959C22.4349 27.5039 22.1629 27.0239 22.1629 26.2559C22.1629 25.5199 22.3709 24.6559 22.7869 23.6639C23.2349 22.6399 23.7789 21.6639 24.4189 20.7359C24.5789 20.4799 24.7709 20.3039 24.9949 20.2079C25.2189 20.0799 25.3949 20.0159 25.5229 20.0159C25.7789 20.0159 25.9069 20.1279 25.9069 20.3519C25.9069 20.4479 25.8589 20.5759 25.7629 20.7359C25.7309 20.8639 25.6829 20.9759 25.6189 21.0719C25.5869 21.1679 25.5709 21.2479 25.5709 21.3119C25.5709 21.5359 25.6829 21.6959 25.9069 21.7919C26.1309 21.8559 26.3709 21.8879 26.6269 21.8879C27.2989 21.8879 28.1789 21.6639 29.2669 21.2159C30.3549 20.7679 31.5229 20.2239 32.7709 19.5839C34.0509 18.9119 35.3149 18.2559 36.5629 17.6159C37.8429 16.9759 39.0269 16.4799 40.1149 16.1279C41.2029 15.7439 42.0989 15.6159 42.8029 15.7439C43.3469 15.8719 43.8269 16.2559 44.2429 16.8959C44.6909 17.5359 44.9789 18.0959 45.1069 18.5759C45.1709 18.7679 45.0749 19.0879 44.8189 19.5359C44.5629 19.9839 44.2269 20.4799 43.8109 21.0239C43.4269 21.5679 43.0429 22.0799 42.6589 22.5599C42.2749 23.0399 41.9869 23.4079 41.7949 23.6639C41.3789 24.1759 40.8989 24.7999 40.3549 25.5359C39.8109 26.2719 39.2669 27.0079 38.7229 27.7439C38.2109 28.4479 37.7949 29.0399 37.4749 29.5199C37.2829 29.8399 37.1869 30.1119 37.1869 30.3359C37.2189 30.5279 37.2989 30.5439 37.4269 30.3839C38.1309 29.4559 38.9629 28.3999 39.9229 27.2159C40.9149 25.9999 41.9069 24.7999 42.8989 23.6159C43.9229 22.3999 44.8509 21.3439 45.6829 20.4479C46.5469 19.5199 47.2029 18.8959 47.6509 18.5759C47.8109 18.4479 48.0989 18.2879 48.5149 18.0959C48.9629 17.8719 49.4909 17.7599 50.0989 17.7599C50.4509 17.7599 50.8029 17.8079 51.1549 17.9039C51.5069 17.9999 51.8909 18.1759 52.3069 18.4319C52.9789 18.8479 53.3149 19.4559 53.3149 20.2559C53.3149 21.2799 52.8189 22.5919 51.8269 24.1919C50.8349 25.7919 49.6669 27.6319 48.3229 29.7119C48.9629 28.8799 49.7469 27.9199 50.6749 26.8319C51.6349 25.7119 52.6109 24.5599 53.6029 23.3759C54.6269 22.1599 55.5869 21.0399 56.4829 20.0159C57.4109 18.9599 58.1789 18.0959 58.7869 17.4239C59.4269 16.7199 59.8109 16.3199 59.9389 16.2239C60.4829 15.8399 60.9149 15.6479 61.2349 15.6479C61.4909 15.6479 61.7949 15.7279 62.1469 15.8879C62.4989 16.0479 62.9469 16.2719 63.4909 16.5599C64.1949 16.9119 64.6909 17.3599 64.9789 17.9039C65.2669 18.4159 65.4109 18.9919 65.4109 19.6319C65.4109 20.5919 65.1869 21.5839 64.7389 22.6079C64.2909 23.5999 63.8589 24.4799 63.4429 25.2479C63.1229 25.7919 62.6429 26.7199 62.0029 28.0319C61.3949 29.3439 60.7229 30.8639 59.9869 32.5919C59.2509 34.3199 58.5309 36.1119 57.8269 37.9679C57.1549 39.8239 56.5949 41.5999 56.1469 43.2959C55.6989 44.96 55.4749 46.3839 55.4749 47.5679C55.4749 47.9839 55.5069 48.3679 55.5709 48.7199C55.6349 49.0719 55.7469 49.376 55.9069 49.632C55.4909 50.048 54.9469 50.256 54.2749 50.256Z" fill="white"/>
<path d="M81.5749 46.4159C81.0629 46.4159 80.6629 46.3679 80.3749 46.2719C79.4789 46.0479 78.8549 45.5519 78.5029 44.7839C78.1829 43.9839 78.0229 43.1039 78.0229 42.1439C78.0229 41.2479 78.1029 40.3679 78.2629 39.504C78.4549 38.6399 78.6149 37.9679 78.7429 37.4879C77.5269 40.2079 76.0229 42.3199 74.2309 43.8239C72.4709 45.3279 70.5989 46.08 68.6149 46.08C66.7589 46.08 65.3989 45.5999 64.5349 44.6399C63.6709 43.6479 63.2389 42.3359 63.2389 40.7039C63.2389 39.4239 63.4469 38.096 63.8629 36.7199C64.3429 34.9919 64.9989 33.1999 65.8309 31.3439C66.6629 29.4879 67.6709 27.6959 68.8549 25.9679C70.0389 24.2399 71.3989 22.6719 72.9349 21.2639C74.5029 19.8559 76.2469 18.7519 78.1669 17.9519C80.0869 17.1199 82.2149 16.7039 84.5509 16.7039C85.9589 16.7039 87.0629 16.9279 87.8629 17.3759C88.6949 17.8239 89.2709 18.4639 89.5909 19.2959C89.7189 19.5839 89.7829 19.9039 89.7829 20.2559C89.7829 20.7359 89.6549 21.1039 89.3989 21.3599C89.1749 21.5839 88.9509 21.6959 88.7269 21.6959C88.5669 21.6959 88.4549 21.5999 88.3909 21.4079C88.3269 20.9599 88.0709 20.6079 87.6229 20.3519C87.2069 20.0959 86.7109 19.9199 86.1349 19.8239C85.5589 19.6959 85.0149 19.6319 84.5029 19.6319C83.1589 19.6319 81.8309 20.0959 80.5189 21.0239C79.2389 21.9199 78.0389 23.0559 76.9189 24.4319C75.7989 25.7759 74.7909 27.1679 73.8949 28.6079C73.0309 30.0479 72.3269 31.2959 71.7829 32.3519C71.0789 33.8239 70.4869 35.3759 70.0069 37.0079C69.5269 38.608 69.2869 39.9999 69.2869 41.1839C69.2869 41.9839 69.4149 42.6239 69.6709 43.1039C69.9589 43.5519 70.4069 43.7759 71.0149 43.7759C72.0389 43.7439 73.0309 43.1679 73.9909 42.0479C74.9829 40.9279 75.9749 39.4399 76.9669 37.584C77.9909 35.728 79.0309 33.6639 80.0869 31.3919C81.1429 29.1199 82.2309 26.8159 83.3509 24.4799C83.7349 24.5439 84.2469 24.6399 84.8869 24.7679C85.5269 24.8639 86.1669 25.0079 86.8069 25.1999C87.4789 25.3919 88.0229 25.6319 88.4389 25.9199C88.8869 26.1759 89.1109 26.5119 89.1109 26.9279C89.1109 27.1519 89.0469 27.3759 88.9189 27.5999C87.6389 29.2959 86.5509 31.1679 85.6549 33.216C84.7909 35.232 84.1349 37.1999 83.6869 39.1199C83.2389 41.0079 83.0149 42.6399 83.0149 44.0159C83.0149 44.4959 83.1109 44.8479 83.3029 45.0719C83.5269 45.2639 83.6869 45.3919 83.7829 45.4559C83.7829 45.8079 83.5429 46.0479 83.0629 46.1759C82.5829 46.3359 82.0869 46.4159 81.5749 46.4159Z" fill="white"/>
<path d="M106.715 50.0159C105.627 50.0159 104.635 49.6319 103.739 48.8639C102.875 48.1279 102.122 47.1519 101.482 45.9359C100.842 44.7519 100.299 43.5039 99.8505 42.1919C99.4025 40.8479 99.0505 39.5999 98.7945 38.4479C98.5385 37.2959 98.3625 36.4159 98.2665 35.8079C98.0105 35.6479 97.8185 35.4879 97.6905 35.3279C96.8265 37.4079 96.1065 39.3599 95.5305 41.1839C94.9545 43.0079 94.6665 44.4159 94.6665 45.4079C94.6665 45.9199 94.7625 46.3039 94.9545 46.5599C95.0185 46.6239 95.0505 46.7199 95.0505 46.8479C95.0505 47.0719 94.8745 47.1199 94.5225 46.9919C94.2665 46.8639 93.8985 46.7679 93.4185 46.7039C92.9705 46.6399 92.5865 46.5439 92.2665 46.4159C91.6585 46.0959 91.2105 45.5999 90.9225 44.9279C90.6345 44.2239 90.4905 43.4079 90.4905 42.4799C90.4905 41.1999 90.6985 39.744 91.1145 38.1119C91.5305 36.4799 92.0425 34.8319 92.6505 33.1679C93.2905 31.4719 93.9465 29.8879 94.6185 28.4159C95.2905 26.9439 95.8825 25.6959 96.3945 24.6719C96.9385 23.6159 97.3065 22.9279 97.4985 22.6079C98.1065 21.6799 98.8425 21.0239 99.7065 20.6399C100.57 20.2239 101.499 20.0159 102.491 20.0159C104.635 20.0159 105.547 20.2079 105.227 20.5919C103.851 22.3519 102.555 24.4479 101.339 26.8799C100.123 29.2799 99.0985 31.6479 98.2665 33.9839C98.4585 34.1759 98.8105 34.2719 99.3225 34.2719C100.059 34.2719 100.875 33.8719 101.771 33.0719C102.699 32.2719 103.563 31.2479 104.363 29.9999C105.195 28.7199 105.867 27.3759 106.379 25.9679C106.923 24.5599 107.195 23.2479 107.195 22.0319C107.195 20.8159 106.859 19.8239 106.187 19.0559C105.515 18.2559 104.379 17.8559 102.779 17.8559C101.723 17.8559 100.507 18.0319 99.1305 18.3839C97.7865 18.7359 96.4585 19.2639 95.1465 19.9679C93.8345 20.6719 92.6985 21.5679 91.7385 22.6559C90.7785 23.7119 90.1545 24.9759 89.8665 26.4479C89.7385 26.4159 89.4185 26.3359 88.9065 26.2079C88.3945 26.0479 87.8985 25.8079 87.4185 25.4879C86.9705 25.1359 86.7465 24.6879 86.7465 24.1439C86.7465 22.5119 87.4665 21.1199 88.9065 19.9679C90.3465 18.8159 92.3145 17.9359 94.8105 17.3279C97.3065 16.6879 100.122 16.3679 103.258 16.3679C106.49 16.3679 108.874 16.9919 110.41 18.2399C111.946 19.4559 112.715 21.0079 112.715 22.8959C112.715 24.4319 112.251 26.0319 111.323 27.6959C110.427 29.3599 109.195 30.8639 107.627 32.2079C106.091 33.5519 104.347 34.5279 102.395 35.136C102.619 35.616 102.987 36.3199 103.499 37.2479C104.043 38.1759 104.651 39.1999 105.323 40.32C106.027 41.408 106.746 42.4479 107.482 43.4399C108.218 44.3999 108.922 45.184 109.594 45.792C110.266 46.368 110.843 46.5919 111.323 46.4639C111.483 46.4319 111.483 46.592 111.323 46.944C111.195 47.296 110.922 47.696 110.507 48.144C110.122 48.624 109.61 49.0559 108.97 49.4399C108.33 49.8239 107.578 50.0159 106.715 50.0159Z" fill="white"/>
<path d="M51.6885 14.7436C51.0613 14.7436 50.6191 14.5556 50.3618 14.1795C50.1206 13.8034 50 13.3504 50 12.8205C50 12.0342 50.1126 11.2821 50.3377 10.5641C50.5628 9.82906 50.8282 9.09402 51.1337 8.35897C51.4553 7.62393 51.7528 6.88034 52.0262 6.1282C52.1549 5.73504 52.2674 5.35897 52.3639 5C52.4604 4.62393 52.5086 4.32479 52.5086 4.10256C52.5086 3.93162 52.4845 3.81197 52.4363 3.74359V3.66667C52.4363 3.5812 52.4926 3.54701 52.6051 3.5641C52.7338 3.59829 52.8544 3.63248 52.9669 3.66667C53.0956 3.68376 53.2242 3.71795 53.3529 3.76923C53.98 3.99145 54.4062 4.2906 54.6313 4.66667C54.8725 5.02564 54.9931 5.40171 54.9931 5.79487C54.9931 5.86325 54.9851 5.93162 54.969 6C54.969 6.06838 54.961 6.13675 54.9449 6.20513C54.9127 6.35897 54.8082 6.67521 54.6313 7.15385C54.4544 7.61539 54.2534 8.11111 54.0283 8.64103C53.771 9.2735 53.5057 9.89744 53.2323 10.5128C52.9589 11.1111 52.7096 11.7778 52.4845 12.5128C52.4684 12.5641 52.4604 12.641 52.4604 12.7436C52.4604 12.9829 52.5569 13.1026 52.7498 13.1026C52.9267 13.1026 53.0956 13.0171 53.2564 12.8462C53.4976 12.5897 53.7871 12.1966 54.1248 11.6667C54.4625 11.1197 54.8806 10.3419 55.3791 9.33333C55.7007 8.70085 55.95 8.12821 56.1269 7.61539C56.3198 7.08547 56.4806 6.5641 56.6093 6.05128C56.6575 5.81197 56.6977 5.5812 56.7299 5.35897C56.7621 5.11966 56.7781 4.91453 56.7781 4.74359C56.7781 4.53846 56.754 4.40171 56.7058 4.33333C56.6736 4.26496 56.6656 4.20513 56.6817 4.15385C56.6977 4.10256 56.746 4.08547 56.8264 4.10256C57.2445 4.13675 57.6465 4.24786 58.0325 4.4359C58.4345 4.60684 58.7641 4.84615 59.0214 5.15385C59.2787 5.46154 59.4074 5.84615 59.4074 6.30769C59.4074 6.47863 59.3833 6.65812 59.335 6.84615C59.2868 7.03419 59.1822 7.35897 59.0214 7.82051C58.8606 8.28205 58.6677 8.80342 58.4425 9.38462C58.2335 9.96581 58.0325 10.5385 57.8395 11.1026C57.6465 11.6667 57.5018 12.1538 57.4053 12.5641C57.3892 12.6325 57.3731 12.6923 57.3571 12.7436C57.3571 12.7778 57.3571 12.812 57.3571 12.8462C57.3571 13.0513 57.4214 13.1538 57.55 13.1538C57.6465 13.1538 57.7832 13.0769 57.9601 12.9231C58.2013 12.6838 58.5068 12.2821 58.8767 11.7179C59.2627 11.1368 59.7049 10.3419 60.2034 9.33333C60.5733 8.59829 60.8627 7.8718 61.0718 7.15385C61.2969 6.4359 61.4095 5.80342 61.4095 5.25641C61.4095 4.64103 61.2567 4.17949 60.9512 3.8718C60.8868 3.80342 60.8547 3.76923 60.8547 3.76923C60.8547 3.73504 60.9512 3.7094 61.1441 3.69231C61.2245 3.69231 61.3049 3.69231 61.3853 3.69231C61.4818 3.67521 61.5622 3.66667 61.6266 3.66667C62.4789 3.66667 63.098 3.82051 63.4839 4.12821C63.8859 4.4188 64.087 4.76923 64.087 5.17949C64.087 5.26496 64.0709 5.37607 64.0387 5.51282C63.9422 5.95727 63.7492 6.50427 63.4598 7.15385C63.1864 7.78633 62.8568 8.45299 62.4708 9.15385C62.1974 9.64957 62.0045 10.0855 61.8919 10.4615C61.7954 10.8205 61.7472 11.1624 61.7472 11.4872C61.7472 12.1368 61.916 12.4615 62.2537 12.4615C62.5271 12.4615 62.8005 12.2735 63.0738 11.8974C63.3472 11.5556 63.6206 11.1111 63.894 10.5641C64.1834 10.0171 64.4247 9.52991 64.6176 9.10256C64.6659 8.98291 64.7543 8.92308 64.883 8.92308C64.9794 8.92308 65.0679 8.97436 65.1483 9.07692C65.2287 9.16239 65.2367 9.2735 65.1724 9.41026C65.092 9.5812 65.0036 9.76923 64.9071 9.97436C64.8267 10.1624 64.7302 10.359 64.6176 10.5641C64.4568 10.8718 64.2638 11.2308 64.0387 11.641C63.8136 12.0513 63.5402 12.4188 63.2186 12.7436C62.913 13.0513 62.5432 13.2051 62.109 13.2051C61.7552 13.2051 61.4899 13.0513 61.313 12.7436C61.1361 12.4359 61.0476 12.094 61.0476 11.7179C61.0476 11.6496 61.0476 11.5812 61.0476 11.5128C61.0476 11.4444 61.0557 11.3761 61.0718 11.3077C60.6537 11.9231 60.1793 12.4957 59.6486 13.0256C59.134 13.5385 58.6033 13.9573 58.0566 14.2821C57.5259 14.5897 57.0113 14.7436 56.5128 14.7436C55.9339 14.7436 55.5158 14.547 55.2585 14.1538C55.0173 13.7436 54.8967 13.2479 54.8967 12.6667C54.8967 12.5128 54.9047 12.359 54.9208 12.2051C54.9529 12.0342 54.9771 11.8718 54.9931 11.7179C54.4464 12.5897 53.8996 13.3162 53.3529 13.8974C52.8061 14.4615 52.2513 14.7436 51.6885 14.7436Z" fill="white"/>
<path d="M67.3991 15C66.2252 15 65.3729 14.7179 64.8423 14.1538C64.3277 13.5897 64.0704 12.8462 64.0704 11.9231C64.0704 11.2222 64.2071 10.453 64.4804 9.61538C64.6895 8.93162 64.9709 8.23932 65.3247 7.53846C65.6785 6.82051 66.0885 6.16239 66.5549 5.5641C67.0212 4.94872 67.5358 4.46154 68.0987 4.10256C68.6615 3.7265 69.2565 3.53846 69.8836 3.53846C70.6877 3.53846 71.339 3.67521 71.8375 3.94872C72.3521 4.20513 72.6094 4.63248 72.6094 5.23077C72.6094 5.67521 72.4405 6.23077 72.1028 6.89744C71.6526 7.82051 70.9932 8.5812 70.1249 9.17949C69.2565 9.77778 68.2836 10.1197 67.2062 10.2051C66.9649 10.906 66.8202 11.4786 66.772 11.9231C66.7559 12.0085 66.7479 12.094 66.7479 12.1795C66.7479 12.2479 66.7479 12.3248 66.7479 12.4103C66.7479 12.9744 66.8685 13.3846 67.1097 13.641C67.3509 13.8803 67.6484 14 68.0022 14C68.6615 14 69.2404 13.8205 69.7389 13.4615C70.2374 13.1026 70.6716 12.6496 71.0415 12.1026C71.4274 11.5556 71.7571 11.0085 72.0305 10.4615C72.1913 10.1538 72.328 9.87179 72.4405 9.61538C72.5531 9.34188 72.6415 9.1453 72.7059 9.02564C72.7863 8.88889 72.8747 8.82051 72.9712 8.82051C73.0677 8.82051 73.1561 8.88034 73.2365 9C73.3169 9.10256 73.325 9.22222 73.2607 9.35897C73.0516 9.80342 72.7621 10.3932 72.3923 11.1282C72.0224 11.8632 71.6043 12.5128 71.138 13.0769C70.6234 13.7265 70.0686 14.2137 69.4736 14.5385C68.8947 14.8462 68.2032 15 67.3991 15ZM67.5197 9.46154C68.2434 9.17094 68.8786 8.64957 69.4253 7.89744C69.9882 7.1453 70.3661 6.31624 70.559 5.41026C70.5751 5.32479 70.5832 5.24786 70.5832 5.17949C70.5992 5.11111 70.6073 5.04274 70.6073 4.97436C70.6073 4.63248 70.5108 4.46154 70.3178 4.46154C70.157 4.46154 69.9882 4.5812 69.8113 4.82051C69.554 5.1453 69.2806 5.58974 68.9912 6.15385C68.7017 6.70086 68.4444 7.23932 68.2193 7.76923C67.9941 8.29915 67.8253 8.70085 67.7127 8.97436L67.5197 9.46154Z" fill="white"/>
<path d="M74.9729 14.8462C73.992 14.8462 73.2442 14.6581 72.7296 14.2821C72.215 13.906 71.9577 13.2564 71.9577 12.3333C71.9577 11.735 72.0542 11.0684 72.2472 10.3333C72.4401 9.59829 72.6814 8.86325 72.9708 8.1282C73.2603 7.37607 73.5658 6.66667 73.8874 6C74.2091 5.33333 74.5066 4.76068 74.7799 4.28205C75.0533 3.78633 75.2543 3.4359 75.383 3.23077C75.7046 2.75214 76.0584 2.26496 76.4443 1.76923C76.8463 1.2735 77.2886 0.854701 77.771 0.512821C78.2695 0.17094 78.8082 0 79.3871 0C79.6927 0 80.0063 0.0598293 80.3279 0.179488C80.6977 0.333334 80.8827 0.48718 80.8827 0.641026C80.8827 0.74359 80.8023 0.794872 80.6415 0.794872C80.5771 0.794872 80.4806 0.837607 80.352 0.923077C80.2394 0.991453 80.1349 1.07692 80.0384 1.17949C79.749 1.48718 79.4032 1.92308 79.0012 2.48718C78.6152 3.05128 78.2052 3.67521 77.771 4.35897C77.3529 5.04274 76.9509 5.75214 76.5649 6.48718C76.1951 7.20513 75.8815 7.88889 75.6242 8.53846C76.3317 7.49573 76.9589 6.58974 77.5057 5.82051C78.0685 5.03419 78.6474 4.40171 79.2424 3.92308C79.4193 3.78633 79.6444 3.71795 79.9178 3.71795C80.3842 3.71795 80.8023 3.84615 81.1721 4.10256C81.3973 4.2735 81.5098 4.60684 81.5098 5.10256C81.5098 5.52992 81.4375 6.04274 81.2927 6.64103C81.148 7.23932 80.955 7.86325 80.7138 8.51282C80.4887 9.1453 80.2394 9.76068 79.9661 10.359L79.5319 11.2821C79.4836 11.4359 79.4595 11.5983 79.4595 11.7692C79.4595 11.9915 79.5077 12.188 79.6042 12.359C79.7007 12.5299 79.8374 12.6154 80.0143 12.6154C80.2555 12.6154 80.5289 12.3932 80.8344 11.9487C81.0596 11.6581 81.2686 11.3248 81.4616 10.9487C81.6706 10.5556 81.8556 10.188 82.0164 9.84615C82.1772 9.50427 82.2978 9.25641 82.3782 9.10256C82.4264 8.98291 82.5149 8.92308 82.6435 8.92308C82.7561 8.92308 82.8526 8.96581 82.933 9.05128C83.0134 9.13675 83.0214 9.24786 82.9571 9.38462C82.8124 9.67521 82.6275 10.0427 82.4023 10.4872C82.1933 10.9316 81.9521 11.3761 81.6787 11.8205C81.4214 12.2479 81.14 12.5983 80.8344 12.8718C80.545 13.1282 80.2636 13.2564 79.9902 13.2564C79.749 13.2564 79.5319 13.1795 79.3389 13.0256C79.162 12.8547 79.0334 12.6496 78.9529 12.4103C78.5348 13.1111 78.0203 13.6923 77.4092 14.1538C76.7981 14.6154 75.986 14.8462 74.9729 14.8462ZM74.5628 13.7949C74.788 13.7949 75.0694 13.5812 75.4071 13.1538C75.7448 12.7094 76.0905 12.1538 76.4443 11.4872C76.7981 10.8034 77.1278 10.0855 77.4333 9.33333C77.7388 8.5812 77.972 7.8718 78.1328 7.20513C78.3097 6.53846 78.3821 6.01709 78.3499 5.64103C78.1409 5.88034 77.8996 6.17949 77.6263 6.53846C77.369 6.88034 77.1036 7.25641 76.8303 7.66667C76.7981 7.71795 76.6855 7.90598 76.4926 8.23077C76.3157 8.53846 76.0986 8.93162 75.8413 9.41026C75.584 9.87179 75.3347 10.359 75.0935 10.8718C74.8523 11.3846 74.6513 11.8632 74.4905 12.3077C74.3297 12.7521 74.2493 13.1111 74.2493 13.3846C74.2493 13.6581 74.3538 13.7949 74.5628 13.7949Z" fill="white"/>
</svg>
